#!OML:ASF H:\BabyWalks\Project 1\Capture day 1\Session 1\baby.ASF
:FULLY-SPECIFIED
:DEGREES
712
root 29.1028 17.6014 0.104125 356.378 118.718 359.588
lowerback 17.8534 3.67496 7.03733
upperback 7.00081 6.59488 -0.565644
thorax -1.56867 3.68604 -5.76175
lowerneck 4.42167 18.3433 15.8686
upperneck 3.38458 25.7509 -13.7782
head 4.10999 12.9426 -5.10072
rclavicle 1.36167e-013 2.22639e-014
rhumerus -38.7916 -5.66371 -71.8085
rradius 43.4328
rwrist 5.98454
rhand -9.18688 -16.9831
rfingers 7.12502
rthumb 16.7665 -46.2792
lclavicle 1.36167e-013 2.22639e-014
lhumerus -31.991 -15.2895 82.096
lradius 60.141
lwrist 5.54847
lhand -0.782232 10.3208
lfingers 7.12502
lthumb 24.8409 38.7271
rfemur -10.2937 -6.45419 15.8241
rtibia 30.6075
rfoot -14.4036 -26.2032
rtoes 1.54122
lfemur 0.472747 -18.3688 -15.283
ltibia 19.8144
lfoot -23.3261 -13.6051
ltoes -5.96441
713
root 29.1052 17.6021 0.102435 356.369 119.212 359.668
lowerback 17.8282 3.67958 7.02873
upperback 6.97499 6.59984 -0.542476
thorax -1.58678 3.68638 -5.7325
lowerneck 4.41079 18.2771 15.8614
upperneck 3.34822 25.6575 -13.7771
head 4.08627 12.8969 -5.11345
rclavicle 4.94974e-014 -3.81667e-014
rhumerus -38.7336 -5.83679 -71.8029
rradius 43.7131
rwrist 5.78216
rhand -9.58211 -17.0153
rfingers 7.12502
rthumb 16.386 -46.3431
lclavicle 4.94974e-014 -3.81667e-014
lhumerus -32.0372 -15.3856 82.1523
lradius 60.3354
lwrist 5.70503
lhand -0.72261 10.3043
lfingers 7.12502
lthumb 24.8981 38.7026
rfemur -10.037 -6.56246 15.8155
rtibia 30.5182
rfoot -14.5586 -26.5242
rtoes 1.7309
lfemur 0.409087 -18.4947 -15.2345
ltibia 19.8573
lfoot -23.3405 -13.9995
ltoes -5.85718
714
root 29.1075 17.6028 0.0997592 356.365 119.683 359.752
lowerback 17.7965 3.68463 7.02638
upperback 6.95239 6.60585 -0.521314
thorax -1.59683 3.68791 -5.70808
lowerneck 4.39641 18.2157 15.8531
upperneck 3.32466 25.5714 -13.7713
head 4.06724 12.8545 -5.12279
rclavicle 1.28017e-013 1.98785e-014
rhumerus -38.6743 -5.99194 -71.8196
rradius 44.0231
rwrist 5.54075
rhand -9.99838 -17.043
rfingers 7.12502
rthumb 15.9852 -46.4034
lclavicle 1.28017e-013 1.98785e-014
lhumerus -32.0699 -15.4727 82.2021
lradius 60.4634
lwrist 5.82336
lhand -0.644656 10.312
lfingers 7.12502
lthumb 24.9728 38.7
rfemur -9.78493 -6.67379 15.808
rtibia 30.4249
rfoot -14.7019 -26.822
rtoes 1.91171
lfemur 0.351074 -18.6118 -15.1876
ltibia 19.8999
lfoot -23.3536 -14.3789
ltoes -5.7464
715
root 29.1099 17.6034 0.0957902 356.345 120.123 359.822
lowerback 17.7616 3.6935 7.02374
upperback 6.93424 6.61652 -0.505573
thorax -1.5991 3.69247 -5.68931
lowerneck 4.385 18.157 15.8469
upperneck 3.30675 25.49 -13.7659
head 4.05045 12.8144 -5.13178
rclavicle -1.11319e-014 -1.35174e-014
rhumerus -38.615 -6.12753 -71.8611
rradius 44.3579
rwrist 5.25986
rhand -10.4339 -17.0615
rfingers 7.12502
rthumb 15.5658 -46.4551
lclavicle -1.11319e-014 -1.35174e-014
lhumerus -32.0917 -15.5539 82.2445
lradius 60.5289
lwrist 5.89911
lhand -0.549338 10.3281
lfingers 7.12502
lthumb 25.0641 38.7034
rfemur -9.53413 -6.78679 15.7903
rtibia 30.3309
rfoot -14.8314 -27.0914
rtoes 2.07287
lfemur 0.309075 -18.7202 -15.1565
ltibia 19.9401
lfoot -23.3662 -14.7362
ltoes -5.62806
716
root 29.1119 17.6041 0.0912105 356.317 120.547 359.881
lowerback 17.7264 3.70242 7.01868
upperback 6.91656 6.62656 -0.49454
thorax -1.60045 3.69679 -5.67402
lowerneck 4.36613 18.1042 15.8348
upperneck 3.3074 25.4164 -13.7457
head 4.03884 12.7777 -5.13353
rclavicle -1.61016e-014 1.27222e-014
rhumerus -38.5543 -6.23496 -71.9304
rradius 44.7137
rwrist 4.92997
rhand -10.8891 -17.066
rfingers 7.12502
rthumb 15.1273 -46.4931
lclavicle -1.61016e-014 1.27222e-014
lhumerus -32.108 -15.633 82.2781
lradius 60.5368
lwrist 5.93606
lhand -0.447029 10.3478
lfingers 7.12502
lthumb 25.1621 38.7093
rfemur -9.29129 -6.90304 15.7655
rtibia 30.2386
rfoot -14.956 -27.3425
rtoes 2.23793
lfemur 0.270017 -18.8147 -15.1321
ltibia 19.9763
lfoot -23.3767 -15.0917
ltoes -5.5009
717
root 29.1134 17.6047 0.085927 356.281 120.955 359.929
lowerback 17.6898 3.70984 7.01035
upperback 6.89995 6.63375 -0.487635
thorax -1.60018 3.69981 -5.66062
lowerneck 4.34495 18.0564 15.8237
upperneck 3.32088 25.3505 -13.7218
head 4.03219 12.7446 -5.13242
rclavicle -4.41302e-014 -1.63003e-014
rhumerus -38.4888 -6.30453 -72.0278
rradius 45.0896
rwrist 4.56572
rhand -11.3479 -17.0629
rfingers 7.12502
rthumb 14.6854 -46.5228
lclavicle -4.41302e-014 -1.63003e-014
lhumerus -32.1181 -15.6989 82.3032
lradius 60.4879
lwrist 5.9318
lhand -0.341689 10.3724
lfingers 7.12502
lthumb 25.2631 38.7197
rfemur -9.05754 -7.02624 15.7323
rtibia 30.1503
rfoot -15.0691 -27.5735
rtoes 2.38268
lfemur 0.234901 -18.9005 -15.1165
ltibia 20.0072
lfoot -23.3841 -15.4413
ltoes -5.36216
